<svg xmlns="http://www.w3.org/2000/svg" viewBox="0 0 1024 1024" width="1024" height="1024">
  <defs>
    <linearGradient id="bg" x1="0" y1="0" x2="1" y2="1">
      <stop offset="0%" stop-color="#1C1C1E"/>
      <stop offset="100%" stop-color="#0A0A0C"/>
    </linearGradient>
    <linearGradient id="accent" x1="0" y1="0" x2="1" y2="1">
      <stop offset="0%" stop-color="#7C6AFF"/>
      <stop offset="100%" stop-color="#4F8BFF"/>
    </linearGradient>
    <linearGradient id="shine" x1="0.5" y1="0" x2="0.5" y2="1">
      <stop offset="0%" stop-color="#fff" stop-opacity="0.35"/>
      <stop offset="40%" stop-color="#fff" stop-opacity="0"/>
    </linearGradient>
    <linearGradient id="edge" x1="0" y1="0" x2="0" y2="1">
      <stop offset="0%" stop-color="#fff" stop-opacity="0.3"/>
      <stop offset="100%" stop-color="#fff" stop-opacity="0.03"/>
    </linearGradient>
    <clipPath id="roundedBg">
      <rect width="1024" height="1024" rx="228"/>
    </clipPath>
    <clipPath id="notchClip">
      <path d="M 172 0 Q 240 0, 240 68 L 240 760 Q 240 840, 320 840 L 704 840 Q 784 840, 784 760 L 784 68 Q 784 0, 852 0 Z"/>
    </clipPath>
  </defs>

  <!-- Wrap in group with padding: 824/1024 ≈ 0.80469, offset 100px -->
  <g transform="translate(100, 100) scale(0.80469)">
    <!-- Background -->
    <rect width="1024" height="1024" rx="228" fill="url(#bg)"/>

    <g clip-path="url(#roundedBg)">
      <!-- Notch body -->
      <path d="M 172 0 Q 240 0, 240 68 L 240 760 Q 240 840, 320 840 L 704 840 Q 784 840, 784 760 L 784 68 Q 784 0, 852 0 Z" fill="#2A2A2C"/>

      <!-- Glass shine -->
      <g clip-path="url(#notchClip)">
        <ellipse cx="512" cy="0" rx="360" ry="200" fill="url(#shine)"/>
      </g>

      <!-- Edge highlight -->
      <path d="M 172 0 Q 240 0, 240 68 L 240 760 Q 240 840, 320 840 L 704 840 Q 784 840, 784 760 L 784 68 Q 784 0, 852 0 Z" fill="none" stroke="url(#edge)" stroke-width="2.5"/>

      <!-- Bold T letter -->
      <text x="512" y="600" font-family="-apple-system, SF Pro Display, Helvetica Neue, sans-serif" font-size="480" font-weight="800" fill="url(#accent)" text-anchor="middle">T</text>
    </g>
  </g>
</svg>
